<svg width="35" height="35" viewBox="0 0 35 35" fill="none" xmlns="http://www.w3.org/2000/svg">
<g clipPath="url(#clip0_44_17)">
<path d="M17.5 1.5C8.66 1.5 1.5 8.66 1.5 17.5C1.5 26.34 8.66 33.5 17.5 33.5C26.34 33.5 33.5 26.34 33.5 17.5C33.5 8.66 26.34 1.5 17.5 1.5ZM16.68 26.64C16.68 27.29 16.15 27.82 15.5 27.82C14.85 27.82 14.32 27.29 14.32 26.64V24.28C14.32 23.63 14.85 23.1 15.5 23.1C16.15 23.1 16.68 23.63 16.68 24.28V26.64ZM15.64 14.62H12.56V26.64C12.56 27.29 12.03 27.82 11.38 27.82C10.73 27.82 10.2 27.29 10.2 26.64V14.62H7.12C6.47 14.62 5.94 14.09 5.94 13.44C5.94 12.79 6.47 12.26 7.12 12.26H10.2V8.35C10.2 7.7 10.73 7.17 11.38 7.17C12.03 7.17 12.56 7.7 12.56 8.35V12.26H15.64C16.29 12.26 16.82 12.79 16.82 13.44C16.82 14.09 16.29 14.62 15.64 14.62ZM20.22 26.64C20.22 27.29 19.69 27.82 19.04 27.82C18.39 27.82 17.86 27.29 17.86 26.64V21.93C17.86 21.28 18.39 20.75 19.04 20.75C19.69 20.75 20.22 21.28 20.22 21.93V26.64ZM23.75 26.64C23.75 27.29 23.22 27.82 22.57 27.82C21.92 27.82 21.39 27.29 21.39 26.64V19.57C21.39 18.92 21.92 18.39 22.57 18.39C23.22 18.39 23.75 18.92 23.75 19.57V26.64ZM27.28 26.64C27.28 27.29 26.75 27.82 26.1 27.82C25.45 27.82 24.92 27.29 24.92 26.64V17.22C24.92 16.57 25.45 16.04 26.1 16.04C26.75 16.04 27.28 16.57 27.28 17.22V26.64Z" fill="#DDDDDD"/>
</g>
<defs>
<clipPath id="clip0_44_17">
<rect width="35" height="35" fill="white"/>
</clipPath>
</defs>
</svg>
